HIERARCHY
ROOT Hips
{
    OFFSET 0 0 0
    CHANNELS 6 Xposition Yposition Zposition Zrotation Xrotation Yrotation
    JOINT Spine
    {
        OFFSET -2.09235e-06 11.8934 0.353976
        CHANNELS 3 Zrotation Xrotation Yrotation
        JOINT Spine1
        {
            OFFSET -1.26041e-06 18.6411 -1.28445
            CHANNELS 3 Zrotation Xrotation Yrotation
            JOINT Spine2
            {
                OFFSET 0.00502016 12.8711 -1.94892
                CHANNELS 3 Zrotation Xrotation Yrotation
                JOINT Neck
                {
                    OFFSET 0.0058107 14.8928 -2.30562
                    CHANNELS 3 Zrotation Xrotation Yrotation
                    JOINT Head
                    {
                        OFFSET 0.00339375 9.1392 0.0642024
                        CHANNELS 3 Zrotation Xrotation Yrotation
                        End Site
                        {
                            OFFSET 0 0 0
                        }
                    }
                }
                JOINT LeftShoulder
                {
                    OFFSET 3.67433 11.8096 0.716738
                    CHANNELS 3 Zrotation Xrotation Yrotation
                    JOINT LeftArm
                    {
                        OFFSET 13.2658 -1.17667 -7.56709
                        CHANNELS 3 Zrotation Xrotation Yrotation
                        JOINT LeftForeArm
                        {
                            OFFSET 29.4417 -0.0109553 0.00339672
                            CHANNELS 3 Zrotation Xrotation Yrotation
                            JOINT LeftHand
                            {
                                OFFSET 26.1766 -0.0097394 0.00303686
                                CHANNELS 3 Zrotation Xrotation Yrotation
                                JOINT LeftHandThumb1
                                {
                                    OFFSET 4.74579 -1.93115 2.54528
                                    CHANNELS 3 Zrotation Xrotation Yrotation
                                    JOINT LeftHandThumb2
                                    {
                                        OFFSET 2.70336 -1.23636 2.29439
                                        CHANNELS 3 Zrotation Xrotation Yrotation
                                        JOINT LeftHandThumb3
                                        {
                                            OFFSET 3.16268 -1.90277 1.38406
                                            CHANNELS 3 Zrotation Xrotation Yrotation
                                            End Site
                                            {
                                                OFFSET 0 0 0
                                            }
                                        }
                                    }
                                }
                                JOINT LeftHandIndex1
                                {
                                    OFFSET 11.688 -0.350833 2.67938
                                    CHANNELS 3 Zrotation Xrotation Yrotation
                                    JOINT LeftHandIndex2
                                    {
                                        OFFSET 4.15632 -0.00733137 0.188317
                                        CHANNELS 3 Zrotation Xrotation Yrotation
                                        JOINT LeftHandIndex3
                                        {
                                            OFFSET 3.2907 -0.0368237 0.12604
                                            CHANNELS 3 Zrotation Xrotation Yrotation
                                            End Site
                                            {
                                                OFFSET 0 0 0
                                            }
                                        }
                                    }
                                }
                                JOINT LeftHandMiddle1
                                {
                                    OFFSET 11.9542 0.363231 0.158637
                                    CHANNELS 3 Zrotation Xrotation Yrotation
                                    JOINT LeftHandMiddle2
                                    {
                                        OFFSET 4.50233 -0.022161 0.0750706
                                        CHANNELS 3 Zrotation Xrotation Yrotation
                                        JOINT LeftHandMiddle3
                                        {
                                            OFFSET 3.54008 -0.0390291 0.0604741
                                            CHANNELS 3 Zrotation Xrotation Yrotation
                                            End Site
                                            {
                                                OFFSET 0 0 0
                                            }
                                        }
                                    }
                                }
                                JOINT LeftHandRing1
                                {
                                    OFFSET 11.41 0.0918627 -2.13364
                                    CHANNELS 3 Zrotation Xrotation Yrotation
                                    JOINT LeftHandRing2
                                    {
                                        OFFSET 4.29875 -0.0437379 -0.0229135
                                        CHANNELS 3 Zrotation Xrotation Yrotation
                                        JOINT LeftHandRing3
                                        {
                                            OFFSET 3.37301 -0.0678539 -0.00969693
                                            CHANNELS 3 Zrotation Xrotation Yrotation
                                            End Site
                                            {
                                                OFFSET 0 0 0
                                            }
                                        }
                                    }
                                }
                                JOINT LeftHandPinky1
                                {
                                    OFFSET 10.2731 -0.384104 -4.004
                                    CHANNELS 3 Zrotation Xrotation Yrotation
                                    JOINT LeftHandPinky2
                                    {
                                        OFFSET 3.45849 0.00594854 -0.216508
                                        CHANNELS 3 Zrotation Xrotation Yrotation
                                        JOINT LeftHandPinky3
                                        {
                                            OFFSET 2.89208 0.0147462 -0.172339
                                            CHANNELS 3 Zrotation Xrotation Yrotation
                                            End Site
                                            {
                                                OFFSET 0 0 0
                                            }
                                        }
                                    }
                                }
                            }
                        }
                    }
                }
                JOINT RightShoulder
                {
                    OFFSET -3.66572 11.8125 0.715889
                    CHANNELS 3 Zrotation Xrotation Yrotation
                    JOINT RightArm
                    {
                        OFFSET -13.2649 -1.1668 -7.57011
                        CHANNELS 3 Zrotation Xrotation Yrotation
                        JOINT RightForeArm
                        {
                            OFFSET -29.4418 0.0109553 -0.00339448
                            CHANNELS 3 Zrotation Xrotation Yrotation
                            JOINT RightHand
                            {
                                OFFSET -26.1767 0.00972748 -0.00301227
                                CHANNELS 3 Zrotation Xrotation Yrotation
                                JOINT RightHandThumb1
                                {
                                    OFFSET -4.74793 -1.92775 2.54418
                                    CHANNELS 3 Zrotation Xrotation Yrotation
                                    JOINT RightHandThumb2
                                    {
                                        OFFSET -2.70464 -1.23435 2.29378
                                        CHANNELS 3 Zrotation Xrotation Yrotation
                                        JOINT RightHandThumb3
                                        {
                                            OFFSET -3.16441 -1.9004 1.38333
                                            CHANNELS 3 Zrotation Xrotation Yrotation
                                            End Site
                                            {
                                                OFFSET 0 0 0
                                            }
                                        }
                                    }
                                }
                                JOINT RightHandIndex1
                                {
                                    OFFSET -11.7143 -0.404739 2.68616
                                    CHANNELS 3 Zrotation Xrotation Yrotation
                                    JOINT RightHandIndex2
                                    {
                                        OFFSET -4.15651 -0.00733137 0.187699
                                        CHANNELS 3 Zrotation Xrotation Yrotation
                                        JOINT RightHandIndex3
                                        {
                                            OFFSET -3.29072 -0.0367999 0.125611
                                            CHANNELS 3 Zrotation Xrotation Yrotation
                                            End Site
                                            {
                                                OFFSET 0 0 0
                                            }
                                        }
                                    }
                                }
                                JOINT RightHandMiddle1
                                {
                                    OFFSET -11.9538 0.372016 0.155906
                                    CHANNELS 3 Zrotation Xrotation Yrotation
                                    JOINT RightHandMiddle2
                                    {
                                        OFFSET -4.50254 -0.0189424 0.0740178
                                        CHANNELS 3 Zrotation Xrotation Yrotation
                                        JOINT RightHandMiddle3
                                        {
                                            OFFSET -3.54019 -0.0363708 0.0596538
                                            CHANNELS 3 Zrotation Xrotation Yrotation
                                            End Site
                                            {
                                                OFFSET 0 0 0
                                            }
                                        }
                                    }
                                }
                                JOINT RightHandRing1
                                {
                                    OFFSET -11.436 0.0383377 -2.1268
                                    CHANNELS 3 Zrotation Xrotation Yrotation
                                    JOINT RightHandRing2
                                    {
                                        OFFSET -4.29844 -0.0437617 -0.0235535
                                        CHANNELS 3 Zrotation Xrotation Yrotation
                                        JOINT RightHandRing3
                                        {
                                            OFFSET -3.37304 -0.0679612 -0.0101708
                                            CHANNELS 3 Zrotation Xrotation Yrotation
                                            End Site
                                            {
                                                OFFSET 0 0 0
                                            }
                                        }
                                    }
                                }
                                JOINT RightHandPinky1
                                {
                                    OFFSET -10.2986 -0.437462 -3.99699
                                    CHANNELS 3 Zrotation Xrotation Yrotation
                                    JOINT RightHandPinky2
                                    {
                                        OFFSET -3.45854 0.00578165 -0.217007
                                        CHANNELS 3 Zrotation Xrotation Yrotation
                                        JOINT RightHandPinky3
                                        {
                                            OFFSET -2.89182 0.0149727 -0.172819
                                            CHANNELS 3 Zrotation Xrotation Yrotation
                                            End Site
                                            {
                                                OFFSET 0 0 0
                                            }
                                        }
                                    }
                                }
                            }
                        }
                    }
                }
            }
        }
    }
    JOINT LeftUpLeg
    {
        OFFSET 8.73919 -0.000184774 -5.26197e-06
        CHANNELS 3 Zrotation Xrotation Yrotation
        JOINT LeftLeg
        {
            OFFSET 5.05774 -40.9824 -1.23411
            CHANNELS 3 Zrotation Xrotation Yrotation
            JOINT LeftFoot
            {
                OFFSET 2.77379 -38.429 -6.08625
                CHANNELS 3 Zrotation Xrotation Yrotation
                JOINT LeftToeBase
                {
                    OFFSET 0.807787 -13.0671 15.9427
                    CHANNELS 3 Zrotation Xrotation Yrotation
                    End Site
                    {
                        OFFSET 0 0 0
                    }
                }
            }
        }
    }
    JOINT RightUpLeg
    {
        OFFSET -8.73919 0 0
        CHANNELS 3 Zrotation Xrotation Yrotation
        JOINT RightLeg
        {
            OFFSET -5.05777 -40.9826 -1.23412
            CHANNELS 3 Zrotation Xrotation Yrotation
            JOINT RightFoot
            {
                OFFSET -2.7738 -38.4291 -6.08627
                CHANNELS 3 Zrotation Xrotation Yrotation
                JOINT RightToeBase
                {
                    OFFSET -0.807784 -13.0671 15.9426
                    CHANNELS 3 Zrotation Xrotation Yrotation
                    End Site
                    {
                        OFFSET 0 0 0
                    }
                }
            }
        }
    }
}
MOTION
Frames: 4
Frame Time: 0.016667
0.581336 84.8445 -2.9376 -0.945906 -9.79917 174.648 -2.41033 0.000341361 0 -0.494821 1.9961 0.908268 -2.13443e-07 -8.53774e-07 0 -16.9353 0.534057 13.0059 11.3241 -27.8229 1.6786 -8.53774e-07 -7.68396e-06 0 -59.7003 -4.29331 64.2857 -76.1061 19.1342 -29.0426 19.9923 19.7733 -3.23958 -12.5001 16.3024 28.4975 7.03846 -7.24669 -5.64613 0.636543 1.8649 3.56074 -19.3479 -0.653922 9.11844 -6.06015 0.234935 0.068528 -5.77409 0.223698 0.0395647 -33.53 -2.91874 11.784 -11.3336 0.203035 0.0969133 -8.13061 0.143337 0.0791294 -55.8683 -7.85574 14.4999 -10.5356 -0.0210671 -0.131221 -8.10201 -0.0183072 0.0884693 -68.7736 -13.4543 12.3404 -11.8773 -0.70688 0 -9.43587 -0.565586 0 -8.53774e-07 -7.68396e-06 0 53.1076 14.2847 -34.993 52.2555 11.4565 29.1043 -95.0668 66.3001 62.0581 8.26121 11.747 -17.2419 -10.9942 -0.0754547 -6.8059 -0.374913 1.07225 -2.05739 58.4436 -1.17234 -7.29187 33.5634 1.3372 0.0791294 12.7127 0.4989 0.118694 58.9173 -0.735856 -3.21289 51.3298 1.03033 0.227282 16.0624 0.292568 0.158259 61.8619 -2.59331 -3.78951 4.63717 -0.0127496 0.0559529 6.04648 -0.0156501 0.0791294 62.2473 -3.91776 0.703318 -0 0 0 -0 0 0 19.5406 -25.5995 7.36476 -6.05916 45.5533 3.63041 1.82394 4.8449 -1.02258 -2.3467 -30.5279 -8.16481 -8.72054 -36.503 -0.344917 6.55843 56.0345 -8.39304 -3.491 -2.29907 2.77693 1.35977 -26.2448 5.5475 
0.627995 84.8984 -2.64549 -0.884494 -10.1647 174.693 -2.47126 0.000290729 0 -0.491245 1.99642 0.828974 2.13443e-07 -1.59028e-15 0 -16.7232 1.08293 12.8747 10.7373 -28.6095 1.67159 2.13443e-07 -1.59028e-15 0 -65.092 -1.4774 63.8564 -69.981 22.2434 -37.6204 18.669 14.3261 -0.573347 -12.536 16.3181 28.5019 7.0023 -7.22459 -5.64336 0.635843 1.86263 3.55657 -19.3247 -0.651893 9.11122 -6.04274 0.234251 0.0559529 -5.79154 0.224383 0.0791294 -33.3976 -2.90612 11.7832 -11.3417 0.203188 0.104678 -8.15201 0.14373 0.0791294 -55.7987 -7.84424 14.5001 -10.5771 -0.021103 -0.131221 -8.11161 -0.0183206 0.0884693 -68.7573 -13.4509 12.3415 -11.8924 -0.70775 0 -9.43004 -0.565246 0 2.13443e-07 -1.59028e-15 0 56.8221 18.6399 -36.0286 48.9628 12.5759 34.6018 -84.4495 66.6047 49.7756 8.26119 11.747 -17.2419 -10.9942 -0.0754681 -6.80601 -0.3749 1.07222 -2.05739 58.4437 -1.17237 -7.29187 33.5637 1.33721 0.0791294 12.7129 0.498907 0.125115 58.9174 -0.735873 -3.21314 51.3304 1.03034 0.2307 16.0626 0.292572 0.153233 61.862 -2.59332 -3.78889 4.63632 -0.0127477 0.0559529 6.04483 -0.015647 0.0791294 62.2474 -3.91774 0.699972 -0 0 0 -0 0 0 19.6855 -26.1016 7.55076 -5.9983 45.447 3.79921 2.05438 4.90333 -1.08497 -2.33459 -30.2631 -8.19154 -8.49377 -37.0766 0.0559529 6.61749 56.0194 -8.22894 -3.31302 -1.92915 2.70004 1.35911 -26.4444 5.50358 
0.57745 84.9788 -1.60879 -0.806133 -10.6381 174.742 -2.55529 0.000235166 0 -0.495668 1.99622 0.741245 -0 0 0 -16.4968 1.8555 12.7446 10.1109 -29.7043 1.68186 -2.56132e-06 1.70755e-06 0 -71.0156 1.92856 63.4097 -61.739 24.0954 -47.5116 17.3467 7.59898 2.1822 -12.6034 16.3476 28.5102 6.94406 -7.19389 -5.64586 0.63448 1.85819 3.54797 -19.2604 -0.647234 9.09693 -6.00961 0.232949 0.068528 -5.82009 0.225505 0.068528 -33.1415 -2.88334 11.7875 -11.3559 0.203455 0.0884693 -8.18696 0.144372 0.0559529 -55.6636 -7.82196 14.5006 -10.6537 -0.0211685 -0.125115 -8.12341 -0.018337 0.0884693 -68.7245 -13.4439 12.3432 -11.9206 -0.709368 0 -9.41899 -0.564602 0 -2.56132e-06 1.70755e-06 0 60.9115 23.7491 -37.3778 44.7411 13.2878 40.8465 -71.8377 65.7989 35.4255 8.26116 11.747 -17.2419 -10.9942 -0.0754915 -6.80601 -0.374879 1.07215 -2.05701 58.4437 -1.17241 -7.29187 33.5642 1.33723 0.068528 12.7132 0.498921 0.118694 58.9175 -0.735903 -3.21289 51.3314 1.03036 0.227282 16.0629 0.292578 0.153233 61.8622 -2.59333 -3.7891 4.63485 -0.0127445 0.0395647 6.04195 -0.0156415 0.0791294 62.2475 -3.91769 0.701089 -0 0 0 -0 0 0 19.8889 -27.4725 7.76554 -5.97844 45.7269 4.0261 2.34966 5.2969 -1.05646 -2.3184 -29.9656 -8.2156 -8.25002 -38.4376 0.4597 6.69658 56.0984 -8.07364 -3.0623 -0.914241 2.62269 1.36047 -26.7117 5.45528 
0.393915 85.0752 0.362897 -0.705605 -11.2139 174.795 -2.65235 0.000176535 0 -0.506005 1.99634 0.642851 -0 0 0 -16.2431 2.85612 12.6046 9.46162 -31.1075 1.70314 -0 0 0 -77.1516 5.76469 63.0208 -52.2068 23.9288 -57.5401 16.4478 0.252538 4.6439 -12.7025 16.3909 28.5226 6.87619 -7.1656 -5.65888 0.632643 1.85221 3.53714 -19.1158 -0.638476 9.07477 -5.95982 0.230993 0.068528 -5.8541 0.22684 0.0559529 -32.7482 -2.85161 11.805 -11.3726 0.203772 0.104678 -8.22793 0.145125 0.0791294 -55.4515 -7.78706 14.5016 -10.763 -0.0212598 -0.125115 -8.12934 -0.0183453 0.0969133 -68.669 -13.4321 12.3462 -11.9585 -0.711541 0 -9.40338 -0.56369 0 -0 0 0 65.2441 29.3986 -39.0823 39.7311 13.3182 47.4835 -59.1378 63.5222 20.9469 8.26111 11.7469 -17.2419 -10.9942 -0.0755209 -6.80613 -0.374851 1.07207 -2.05739 58.4439 -1.17246 -7.29187 33.5648 1.33725 0.0791294 12.7136 0.498938 0.125115 58.9177 -0.735941 -3.21338 51.3327 1.03039 0.234068 16.0633 0.292585 0.153233 61.8624 -2.59334 -3.7891 4.63303 -0.0127404 0.0559529 6.03837 -0.0156347 0.0791294 62.2476 -3.91764 0.701089 -0 0 0 -0 0 0 20.1795 -29.8991 8.02235 -6.01247 46.4555 4.30517 2.69851 6.19108 -0.897868 -2.30073 -29.6722 -8.23551 -8.00438 -40.7271 1.00092 6.78645 56.2238 -7.92331 -2.70345 0.963484 2.53929 1.36554 -27.0663 5.40539 
